<svg xmlns="http://www.w3.org/2000/svg" xmlns:xlink="http://www.w3.org/1999/xlink" viewBox="0 0 512 512"><defs><path id="a" d="M512 274V238l-31.6-5.7a224.6 224.6 0 0 0-8-40l27-17.4-13.8-33.5-31.4 6.8a226 226 0 0 0-22.7-34l18.3-26.3-25.6-25.6-26.4 18.3A226.2 226.2 0 0 0 364 57.8l6.8-31.4-33.5-13.8-17.3 27a224.7 224.7 0 0 0-40-8L274 0h-36.2l-5.7 31.6a224.5 224.5 0 0 0-40 8l-17.4-27-33.5 13.8 6.8 31.4a226 226 0 0 0-34 22.7L87.9 62.2 62.2 87.8l18.3 26.4A226 226 0 0 0 57.8 148l-31.4-6.8-13.8 33.4 27 17.4a224.6 224.6 0 0 0-8 40L0 238v36.2l31.6 5.7c1.4 13.8 4.1 27.2 8 40l-27 17.4 13.8 33.5 31.4-6.8a226 226 0 0 0 22.7 34l-18.3 26.3 25.6 25.6 26.4-18.3a226 226 0 0 0 33.9 22.7l-6.8 31.4 33.5 13.8 17.3-27a225 225 0 0 0 40 8L238 512h36.2l5.7-31.6c13.8-1.4 27.2-4.1 40-8l17.4 27 33.5-13.8-6.8-31.4a226 226 0 0 0 34-22.7l26.3 18.3 25.6-25.6-18.3-26.4a226.5 226.5 0 0 0 22.7-33.9l31.4 6.8 13.8-33.5-27-17.3a225 225 0 0 0 8-40L512 274z"/></defs><clipPath id="b"><use overflow="visible" xlink:href="#a"/></clipPath><linearGradient id="c" x1="480.8" x2="31.2" y1="380.6" y2="131.4" gradientUnits="userSpaceOnUse"><stop offset="0" stop-color="#BDC6C9"/><stop offset=".1" stop-color="#ABB4B7"/><stop offset=".3" stop-color="#7D8588"/><stop offset=".5" stop-color="#444A4D"/><stop offset=".6" stop-color="#5E6669"/><stop offset=".8" stop-color="#899396"/><stop offset=".9" stop-color="#A3AFB2"/><stop offset="1" stop-color="#ADBABD"/></linearGradient><circle cx="256" cy="256" r="257" fill="url(#c)" clip-path="url(#b)"/><radialGradient id="d" cx="256" cy="256" r="257" gradientUnits="userSpaceOnUse"><stop offset=".7" stop-color="#004ED4" stop-opacity=".4"/><stop offset=".8" stop-color="#437CDE" stop-opacity=".3"/><stop offset=".8" stop-color="#83A8E7" stop-opacity=".2"/><stop offset=".9" stop-color="#B5CAEE" stop-opacity=".2"/><stop offset=".9" stop-color="#DAE3F4" stop-opacity=".1"/><stop offset="1" stop-color="#F0F2F7" stop-opacity="0"/><stop offset="1" stop-color="#F8F8F8" stop-opacity="0"/></radialGradient><circle cx="256" cy="256" r="257" fill="url(#d)" clip-path="url(#b)"/><linearGradient id="e" x1="352.3" x2="159.7" y1="494.3" y2="17.6" gradientUnits="userSpaceOnUse"><stop offset="0" stop-color="#fff" stop-opacity="0"/><stop offset=".5" stop-color="#4D5057" stop-opacity=".8"/><stop offset="1" stop-color="#fff" stop-opacity="0"/></linearGradient><circle cx="256" cy="256" r="257" fill="url(#e)" clip-path="url(#b)"/><radialGradient id="f" cx="256" cy="256" r="257" gradientUnits="userSpaceOnUse"><stop offset=".8" stop-color="#6B6B6B" stop-opacity="0"/><stop offset=".8" stop-color="#848484" stop-opacity="0"/><stop offset=".9" stop-color="#B5B5B5" stop-opacity=".1"/><stop offset=".9" stop-color="#DADADA" stop-opacity=".1"/><stop offset="1" stop-color="#F0F0F0" stop-opacity=".1"/><stop offset="1" stop-color="#F8F8F8" stop-opacity=".2"/></radialGradient><circle cx="256" cy="256" r="257" fill="url(#f)" clip-path="url(#b)"/><linearGradient id="g" x1="74.3" x2="437.7" y1="437.7" y2="74.3" gradientUnits="userSpaceOnUse"><stop offset="0" stop-color="#fff" stop-opacity="0"/><stop offset=".5" stop-color="#828282" stop-opacity=".6"/><stop offset="1" stop-color="#fff" stop-opacity="0"/></linearGradient><circle cx="256" cy="256" r="257" fill="url(#g)" clip-path="url(#b)"/><linearGradient id="h" x1="45.5" x2="466.5" y1="403.4" y2="108.6" gradientUnits="userSpaceOnUse"><stop offset=".2" stop-color="#fff" stop-opacity="0"/><stop offset=".5" stop-color="#fff" stop-opacity=".4"/><stop offset=".8" stop-color="#fff" stop-opacity="0"/></linearGradient><circle cx="256" cy="256" r="257" fill="url(#h)" clip-path="url(#b)"/><defs><path id="i" d="M256 51a205 205 0 1 0 0 410 205 205 0 0 0 0-410z"/></defs><clipPath id="j"><use overflow="visible" xlink:href="#i"/></clipPath><linearGradient id="k" x1="441.2" x2="70.8" y1="358.6" y2="153.4" gradientTransform="rotate(-90 256 256)" gradientUnits="userSpaceOnUse"><stop offset="0" stop-color="#BDC6C9"/><stop offset=".1" stop-color="#ABB4B7"/><stop offset=".3" stop-color="#7D8588"/><stop offset=".5" stop-color="#444A4D"/><stop offset=".6" stop-color="#5E6669"/><stop offset=".8" stop-color="#899396"/><stop offset=".9" stop-color="#A3AFB2"/><stop offset="1" stop-color="#ADBABD"/></linearGradient><path fill="url(#k)" d="M256 44.3a211.7 211.7 0 1 1 0 423.4 211.7 211.7 0 0 1 0-423.4z" clip-path="url(#j)"/><radialGradient id="l" cx="256" cy="256" r="218" gradientTransform="matrix(0 -.971 .971 0 7.4 504.6)" gradientUnits="userSpaceOnUse"><stop offset=".9" stop-color="#0058D4" stop-opacity=".6"/><stop offset="1" stop-color="#F8F8F8" stop-opacity="0"/></radialGradient><path fill="url(#l)" d="M256 44.3a211.7 211.7 0 1 1 0 423.4 211.7 211.7 0 0 1 0-423.4z" clip-path="url(#j)"/><linearGradient id="m" x1="335.3" x2="176.7" y1="452.3" y2="59.7" gradientTransform="rotate(-90 256 256)" gradientUnits="userSpaceOnUse"><stop offset="0" stop-color="#fff" stop-opacity="0"/><stop offset=".5" stop-color="#4D5057" stop-opacity=".8"/><stop offset="1" stop-color="#fff" stop-opacity="0"/></linearGradient><path fill="url(#m)" d="M256 44.3a211.7 211.7 0 1 1 0 423.4 211.7 211.7 0 0 1 0-423.4z" clip-path="url(#j)"/><linearGradient id="n" x1="106.3" x2="405.7" y1="405.7" y2="106.3" gradientTransform="rotate(-90 256 256)" gradientUnits="userSpaceOnUse"><stop offset="0" stop-color="#fff" stop-opacity="0"/><stop offset=".5" stop-color="#828282" stop-opacity=".6"/><stop offset="1" stop-color="#fff" stop-opacity="0"/></linearGradient><path fill="url(#n)" d="M256 44.3a211.7 211.7 0 1 1 0 423.4 211.7 211.7 0 0 1 0-423.4z" clip-path="url(#j)"/><linearGradient id="o" x1="82.6" x2="429.4" y1="377.4" y2="134.6" gradientTransform="rotate(-90 256 256)" gradientUnits="userSpaceOnUse"><stop offset=".2" stop-color="#fff" stop-opacity="0"/><stop offset=".5" stop-color="#fff" stop-opacity=".4"/><stop offset=".8" stop-color="#fff" stop-opacity="0"/></linearGradient><path fill="url(#o)" d="M256 44.3a211.7 211.7 0 1 1 0 423.4 211.7 211.7 0 0 1 0-423.4z" clip-path="url(#j)"/><defs><path id="p" d="M446 256a190 190 0 1 0-380 0 190 190 0 0 0 380 0z"/></defs><clipPath id="q"><use overflow="visible" xlink:href="#p"/></clipPath><linearGradient id="r" x1="427.6" x2="84.4" y1="351.1" y2="160.9" gradientUnits="userSpaceOnUse"><stop offset="0" stop-color="#BDC6C9"/><stop offset=".1" stop-color="#ABB4B7"/><stop offset=".3" stop-color="#7D8588"/><stop offset=".5" stop-color="#444A4D"/><stop offset=".6" stop-color="#5E6669"/><stop offset=".8" stop-color="#899396"/><stop offset=".9" stop-color="#A3AFB2"/><stop offset="1" stop-color="#ADBABD"/></linearGradient><path fill="url(#r)" d="M452.2 256a196.2 196.2 0 1 1-392.4 0 196.2 196.2 0 0 1 392.4 0z" clip-path="url(#q)"/><radialGradient id="s" cx="260.9" cy="260.9" r="191.5" gradientTransform="matrix(.971 0 0 .971 7.4 7.4)" gradientUnits="userSpaceOnUse"><stop offset=".9" stop-color="#0037D4"/><stop offset="1" stop-color="#F8F8F8" stop-opacity="0"/></radialGradient><path fill="url(#s)" d="M446.7 260.7a186 186 0 1 1-372 0 186 186 0 0 1 372 0z" clip-path="url(#q)"/><radialGradient id="t" cx="256" cy="256" r="197.4" gradientTransform="matrix(.973 0 0 .973 7 7)" gradientUnits="userSpaceOnUse"><stop offset=".9" stop-color="#0066D4"/><stop offset="1" stop-color="#F8F8F8" stop-opacity="0"/></radialGradient><path fill="url(#t)" d="M448 256a192 192 0 1 1-384 0 192 192 0 0 1 384 0z" clip-path="url(#q)"/><linearGradient id="u" x1="329.5" x2="182.5" y1="437.9" y2="74.1" gradientUnits="userSpaceOnUse"><stop offset="0" stop-color="#fff" stop-opacity="0"/><stop offset=".5" stop-color="#4D5057" stop-opacity=".8"/><stop offset="1" stop-color="#fff" stop-opacity="0"/></linearGradient><path fill="url(#u)" d="M452.2 256a196.2 196.2 0 1 1-392.4 0 196.2 196.2 0 0 1 392.4 0z" clip-path="url(#q)"/><linearGradient id="v" x1="117.3" x2="394.7" y1="394.7" y2="117.3" gradientUnits="userSpaceOnUse"><stop offset="0" stop-color="#fff" stop-opacity="0"/><stop offset=".5" stop-color="#828282" stop-opacity=".6"/><stop offset="1" stop-color="#fff" stop-opacity="0"/></linearGradient><path fill="url(#v)" d="M452.2 256a196.2 196.2 0 1 1-392.4 0 196.2 196.2 0 0 1 392.4 0z" clip-path="url(#q)"/><linearGradient id="w" x1="95.3" x2="416.7" y1="368.5" y2="143.5" gradientUnits="userSpaceOnUse"><stop offset=".2" stop-color="#fff" stop-opacity="0"/><stop offset=".5" stop-color="#fff" stop-opacity=".4"/><stop offset=".8" stop-color="#fff" stop-opacity="0"/></linearGradient><path fill="url(#w)" d="M452.2 256a196.2 196.2 0 1 1-392.4 0 196.2 196.2 0 0 1 392.4 0z" clip-path="url(#q)"/><defs><path id="x" d="M256 81a175 175 0 1 0 0 350 175 175 0 0 0 0-350z"/></defs><clipPath id="y"><use overflow="visible" xlink:href="#x"/></clipPath><linearGradient id="z" x1="131.9" x2="380.1" y1="131.9" y2="380.1" gradientUnits="userSpaceOnUse"><stop offset="0" stop-color="#14B9FF"/><stop offset="1" stop-color="#48007F"/></linearGradient><path fill="url(#z)" d="M256 80.5a175.5 175.5 0 1 0 0 351 175.5 175.5 0 0 0 0-351z" clip-path="url(#y)"/><radialGradient id="A" cx="256" cy="256" r="175.5" gradientUnits="userSpaceOnUse"><stop offset=".3" stop-color="#006CC2" stop-opacity="0"/><stop offset=".6" stop-color="#016EC3" stop-opacity=".2"/><stop offset=".7" stop-color="#0575C7" stop-opacity=".3"/><stop offset=".8" stop-color="#0D80CE" stop-opacity=".4"/><stop offset=".9" stop-color="#1791D8" stop-opacity=".4"/><stop offset=".9" stop-color="#25A7E4" stop-opacity=".5"/><stop offset="1" stop-color="#36C2F4" stop-opacity=".5"/><stop offset="1" stop-color="#42D5FF" stop-opacity=".5"/></radialGradient><path fill="url(#A)" d="M256 80.5a175.5 175.5 0 1 0 0 351 175.5 175.5 0 0 0 0-351z" clip-path="url(#y)"/><radialGradient id="B" cx="202" cy="193" r="127" gradientUnits="userSpaceOnUse"><stop offset="0" stop-color="#E1FFFF" stop-opacity=".5"/><stop offset=".1" stop-color="#D9F9FD" stop-opacity=".5"/><stop offset=".2" stop-color="#C3E7F6" stop-opacity=".4"/><stop offset=".4" stop-color="#9ECAEC" stop-opacity=".3"/><stop offset=".6" stop-color="#6CA2DE" stop-opacity=".2"/><stop offset=".9" stop-color="#2C6FCC" stop-opacity=".1"/><stop offset="1" stop-color="#004CBF" stop-opacity="0"/></radialGradient><path fill="url(#B)" d="M202 66a127 127 0 1 0 0 254 127 127 0 0 0 0-254z" clip-path="url(#y)"/><path fill="#191919" d="M256 67a189 189 0 1 0 0 378 189 189 0 0 0 0-378zm0 361.5a172.5 172.5 0 1 1 0-345 172.5 172.5 0 0 1 0 345z" clip-path="url(#y)" opacity=".3"/><path fill="none" stroke="#E4EAF4" stroke-miterlimit="10" stroke-width="3" d="M231.3 242.2l65.3-54.5M296.6 187.7l-50.7-51.2M296.6 187.7l19.5-49.3M231.3 242.2l-85.3-24M231.3 242.2l-50.7 70.3M231.3 242.2l56.6 63.4M287.9 305.6l72.3 24.3M287.9 305.6l-34.6 63.9"/><defs><circle id="C" cx="231.3" cy="242.2" r="34.3"/></defs><clipPath id="D"><use overflow="visible" xlink:href="#C"/></clipPath><radialGradient id="E" cx="219.4" cy="230.3" r="51.5" gradientUnits="userSpaceOnUse"><stop offset="0" stop-color="#fff"/><stop offset="1" stop-color="#B8C4D1"/></radialGradient><circle cx="219.4" cy="230.3" r="51.5" fill="url(#E)" clip-path="url(#D)"/><radialGradient id="F" cx="228.5" cy="237.7" r="34.6" gradientTransform="translate(-13 -11.8) scale(1.063)" gradientUnits="userSpaceOnUse"><stop offset="0" stop-color="#fff" stop-opacity="0"/><stop offset=".3" stop-color="#FCFDFE" stop-opacity=".2"/><stop offset=".4" stop-color="#F3F6FD" stop-opacity=".4"/><stop offset=".6" stop-color="#E4EBF9" stop-opacity=".5"/><stop offset=".8" stop-color="#CEDBF5" stop-opacity=".6"/><stop offset=".9" stop-color="#B2C7EF" stop-opacity=".7"/><stop offset="1" stop-color="#95B2E9" stop-opacity=".8"/></radialGradient><circle cx="229.9" cy="240.8" r="36.8" fill="url(#F)" clip-path="url(#D)"/><defs><circle id="G" cx="180.6" cy="312.5" r="24"/></defs><clipPath id="H"><use overflow="visible" xlink:href="#G"/></clipPath><radialGradient id="I" cx="172.3" cy="304.2" r="36" gradientUnits="userSpaceOnUse"><stop offset="0" stop-color="#fff"/><stop offset="1" stop-color="#B8C4D1"/></radialGradient><circle cx="172.3" cy="304.2" r="36" fill="url(#I)" clip-path="url(#H)"/><radialGradient id="J" cx="181.2" cy="304.2" r="24.3" gradientTransform="translate(-13 -11.8) scale(1.063)" gradientUnits="userSpaceOnUse"><stop offset="0" stop-color="#fff" stop-opacity="0"/><stop offset=".3" stop-color="#FCFDFE" stop-opacity=".2"/><stop offset=".4" stop-color="#F3F6FD" stop-opacity=".4"/><stop offset=".6" stop-color="#E4EAF9" stop-opacity=".5"/><stop offset=".8" stop-color="#CED9F5" stop-opacity=".6"/><stop offset=".9" stop-color="#B2C4EF" stop-opacity=".7"/><stop offset="1" stop-color="#95AEE9" stop-opacity=".8"/></radialGradient><circle cx="179.6" cy="311.6" r="25.8" fill="url(#J)" clip-path="url(#H)"/><defs><circle id="K" cx="288.8" cy="306.5" r="24"/></defs><clipPath id="L"><use overflow="visible" xlink:href="#K"/></clipPath><radialGradient id="M" cx="280.5" cy="298.2" r="36" gradientUnits="userSpaceOnUse"><stop offset="0" stop-color="#fff"/><stop offset="1" stop-color="#B8C4D1"/></radialGradient><circle cx="280.5" cy="298.2" r="36" fill="url(#M)" clip-path="url(#L)"/><radialGradient id="N" cx="283" cy="298.6" r="24.3" gradientTransform="translate(-13 -11.8) scale(1.063)" gradientUnits="userSpaceOnUse"><stop offset="0" stop-color="#fff" stop-opacity="0"/><stop offset=".3" stop-color="#FCFDFE" stop-opacity=".2"/><stop offset=".4" stop-color="#F3F5FD" stop-opacity=".4"/><stop offset=".6" stop-color="#E4E7F9" stop-opacity=".5"/><stop offset=".8" stop-color="#CED4F5" stop-opacity=".6"/><stop offset=".9" stop-color="#B2BBEF" stop-opacity=".7"/><stop offset="1" stop-color="#95A2E9" stop-opacity=".8"/></radialGradient><circle cx="287.9" cy="305.6" r="25.8" fill="url(#N)" clip-path="url(#L)"/><defs><circle id="O" cx="146" cy="218.2" r="17.2"/></defs><clipPath id="P"><use overflow="visible" xlink:href="#O"/></clipPath><radialGradient id="Q" cx="140.1" cy="212.3" r="25.7" gradientUnits="userSpaceOnUse"><stop offset="0" stop-color="#fff"/><stop offset="1" stop-color="#B8C4D1"/></radialGradient><circle cx="140.1" cy="212.3" r="25.7" fill="url(#Q)" clip-path="url(#P)"/><radialGradient id="R" cx="148.9" cy="215.7" r="17.3" gradientTransform="translate(-13 -11.8) scale(1.063)" gradientUnits="userSpaceOnUse"><stop offset="0" stop-color="#fff" stop-opacity="0"/><stop offset=".3" stop-color="#FCFEFE" stop-opacity=".2"/><stop offset=".4" stop-color="#F3F9FD" stop-opacity=".4"/><stop offset=".6" stop-color="#E4F1F9" stop-opacity=".5"/><stop offset=".8" stop-color="#CEE5F5" stop-opacity=".6"/><stop offset=".9" stop-color="#B2D6EF" stop-opacity=".7"/><stop offset="1" stop-color="#95C7E9" stop-opacity=".8"/></radialGradient><circle cx="145.4" cy="217.5" r="18.4" fill="url(#R)" clip-path="url(#P)"/><defs><circle id="S" cx="296.6" cy="187.7" r="17.2"/></defs><clipPath id="T"><use overflow="visible" xlink:href="#S"/></clipPath><radialGradient id="U" cx="290.7" cy="181.8" r="25.7" gradientUnits="userSpaceOnUse"><stop offset="0" stop-color="#fff"/><stop offset="1" stop-color="#B8C4D1"/></radialGradient><circle cx="290.7" cy="181.8" r="25.7" fill="url(#U)" clip-path="url(#T)"/><radialGradient id="V" cx="290.6" cy="187" r="17.3" gradientTransform="translate(-13 -11.8) scale(1.063)" gradientUnits="userSpaceOnUse"><stop offset="0" stop-color="#fff" stop-opacity="0"/><stop offset=".3" stop-color="#FCFDFE" stop-opacity=".2"/><stop offset=".4" stop-color="#F3F7FD" stop-opacity=".4"/><stop offset=".6" stop-color="#E4ECF9" stop-opacity=".5"/><stop offset=".8" stop-color="#CEDEF5" stop-opacity=".6"/><stop offset=".9" stop-color="#B2CBEF" stop-opacity=".7"/><stop offset="1" stop-color="#95B7E9" stop-opacity=".8"/></radialGradient><circle cx="295.9" cy="187" r="18.4" fill="url(#V)" clip-path="url(#T)"/><defs><circle id="W" cx="253.3" cy="369.5" r="17.2"/></defs><clipPath id="X"><use overflow="visible" xlink:href="#W"/></clipPath><radialGradient id="Y" cx="247.4" cy="363.6" r="25.7" gradientUnits="userSpaceOnUse"><stop offset="0" stop-color="#fff"/><stop offset="1" stop-color="#B8C4D1"/></radialGradient><circle cx="247.4" cy="363.6" r="25.7" fill="url(#Y)" clip-path="url(#X)"/><radialGradient id="Z" cx="249.8" cy="358.1" r="17.3" gradientTransform="translate(-13 -11.8) scale(1.063)" gradientUnits="userSpaceOnUse"><stop offset="0" stop-color="#fff" stop-opacity="0"/><stop offset=".3" stop-color="#FCFCFE" stop-opacity=".2"/><stop offset=".4" stop-color="#F3F3FD" stop-opacity=".4"/><stop offset=".6" stop-color="#E4E4F9" stop-opacity=".5"/><stop offset=".8" stop-color="#CECFF5" stop-opacity=".6"/><stop offset=".9" stop-color="#B2B4EF" stop-opacity=".7"/><stop offset="1" stop-color="#9598E9" stop-opacity=".8"/></radialGradient><circle cx="252.6" cy="368.9" r="18.4" fill="url(#Z)" clip-path="url(#X)"/><defs><circle id="aa" cx="360.9" cy="330.5" r="17.2"/></defs><clipPath id="ab"><use overflow="visible" xlink:href="#aa"/></clipPath><radialGradient id="ac" cx="355" cy="324.6" r="25.7" gradientUnits="userSpaceOnUse"><stop offset="0" stop-color="#fff"/><stop offset="1" stop-color="#B8C4D1"/></radialGradient><circle cx="355" cy="324.6" r="25.7" fill="url(#ac)" clip-path="url(#ab)"/><radialGradient id="ad" cx="351" cy="321.4" r="17.3" gradientTransform="translate(-13 -11.8) scale(1.063)" gradientUnits="userSpaceOnUse"><stop offset="0" stop-color="#fff" stop-opacity="0"/><stop offset=".3" stop-color="#FDFCFE" stop-opacity=".2"/><stop offset=".4" stop-color="#F5F3FD" stop-opacity=".4"/><stop offset=".6" stop-color="#E9E4F9" stop-opacity=".5"/><stop offset=".8" stop-color="#D7CEF5" stop-opacity=".6"/><stop offset=".9" stop-color="#C0B2EF" stop-opacity=".7"/><stop offset="1" stop-color="#A995E9" stop-opacity=".8"/></radialGradient><circle cx="360.2" cy="329.9" r="18.4" fill="url(#ad)" clip-path="url(#ab)"/><defs><circle id="ae" cx="245.9" cy="136.5" r="13.7"/></defs><clipPath id="af"><use overflow="visible" xlink:href="#ae"/></clipPath><radialGradient id="ag" cx="241.1" cy="131.8" r="20.6" gradientUnits="userSpaceOnUse"><stop offset="0" stop-color="#fff"/><stop offset="1" stop-color="#B8C4D1"/></radialGradient><circle cx="241.1" cy="131.8" r="20.6" fill="url(#ag)" clip-path="url(#af)"/><radialGradient id="ah" cx="243" cy="139" r="13.9" gradientTransform="translate(-13 -11.8) scale(1.063)" gradientUnits="userSpaceOnUse"><stop offset="0" stop-color="#fff" stop-opacity="0"/><stop offset=".3" stop-color="#FCFEFE" stop-opacity=".2"/><stop offset=".4" stop-color="#F3F9FD" stop-opacity=".4"/><stop offset=".6" stop-color="#E4F1F9" stop-opacity=".5"/><stop offset=".8" stop-color="#CEE5F5" stop-opacity=".6"/><stop offset=".9" stop-color="#B2D6EF" stop-opacity=".7"/><stop offset="1" stop-color="#95C7E9" stop-opacity=".8"/></radialGradient><circle cx="245.3" cy="136" r="14.7" fill="url(#ah)" clip-path="url(#af)"/><defs><circle id="ai" cx="316.1" cy="138.4" r="13.7"/></defs><clipPath id="aj"><use overflow="visible" xlink:href="#ai"/></clipPath><radialGradient id="ak" cx="311.4" cy="133.7" r="20.6" gradientUnits="userSpaceOnUse"><stop offset="0" stop-color="#fff"/><stop offset="1" stop-color="#B8C4D1"/></radialGradient><circle cx="311.4" cy="133.7" r="20.6" fill="url(#ak)" clip-path="url(#aj)"/><radialGradient id="al" cx="309" cy="140.8" r="13.9" gradientTransform="translate(-13 -11.8) scale(1.063)" gradientUnits="userSpaceOnUse"><stop offset="0" stop-color="#fff" stop-opacity="0"/><stop offset=".3" stop-color="#FCFDFE" stop-opacity=".2"/><stop offset=".4" stop-color="#F3F7FD" stop-opacity=".4"/><stop offset=".6" stop-color="#E4ECF9" stop-opacity=".5"/><stop offset=".8" stop-color="#CEDDF5" stop-opacity=".6"/><stop offset=".9" stop-color="#B2C9EF" stop-opacity=".7"/><stop offset="1" stop-color="#95B5E9" stop-opacity=".8"/></radialGradient><circle cx="315.6" cy="137.9" r="14.7" fill="url(#al)" clip-path="url(#aj)"/></svg>
