<svg viewBox="0 0 679 753" xmlns="http://www.w3.org/2000/svg" fill-rule="evenodd" clip-rule="evenodd" stroke-linejoin="round" stroke-miterlimit="1.41"><g fill-rule="nonzero"><path d="M657.9 580.2L352.8 752.8V618.4l190.1-104.6 115 66.4zm20.9-18.9V200.4l-111.6 64.5v232l111.6 64.4zM20.9 580.2L326 752.8V618.4L135.8 513.8 20.9 580.2zM0 561.3V200.4l111.6 64.5v232L0 561.3zM13.1 177L326 0v129.9L125.5 240.2l-1.6.9L13.1 177zm652.6 0L352.8 0v129.9l200.5 110.2 1.6.9 110.8-64z" fill="#8ed6fb"/><path d="M326 587.8L138.4 484.6V280.3L326 388.6v199.2zm26.8 0l187.6-103.1V280.3L352.8 388.6v199.2zM151.1 256.7l188.3-103.5 188.3 103.5-188.3 108.7-188.3-108.7z" fill="#1c78c0"/></g></svg>
